<svg width="50" height="50" viewBox="0 0 50 50" fill="none" xmlns="http://www.w3.org/2000/svg">
<path d="M41.6666 16.6667V12.5C41.6666 9.0625 38.8541 6.25 35.4166 6.25H14.5833C11.1458 6.25 8.33331 9.0625 8.33331 12.5V16.6667C4.89581 16.6667 2.08331 19.4792 2.08331 22.9167V33.3333C2.08331 36.7708 4.89581 39.5833 8.33331 39.5833V41.6667C8.33331 42.8125 9.27081 43.75 10.4166 43.75C11.5625 43.75 12.5 42.8125 12.5 41.6667V39.5833H37.5V41.6667C37.5 42.8125 38.4375 43.75 39.5833 43.75C40.7291 43.75 41.6666 42.8125 41.6666 41.6667V39.5833C45.1041 39.5833 47.9166 36.7708 47.9166 33.3333V22.9167C47.9166 19.4792 45.1041 16.6667 41.6666 16.6667ZM12.5 12.5C12.5 11.3542 13.4375 10.4167 14.5833 10.4167H35.4166C36.5625 10.4167 37.5 11.3542 37.5 12.5V18.2917C36.2291 19.4375 35.4166 21.0833 35.4166 22.9167V27.0833H14.5833V22.9167C14.5833 21.0833 13.7708 19.4375 12.5 18.2917V12.5ZM43.75 33.3333C43.75 34.4792 42.8125 35.4167 41.6666 35.4167H8.33331C7.18748 35.4167 6.24998 34.4792 6.24998 33.3333V22.9167C6.24998 21.7708 7.18748 20.8333 8.33331 20.8333C9.47915 20.8333 10.4166 21.7708 10.4166 22.9167V31.25H39.5833V22.9167C39.5833 21.7708 40.5208 20.8333 41.6666 20.8333C42.8125 20.8333 43.75 21.7708 43.75 22.9167V33.3333Z" fill="#E38B29"/>
</svg>
