<svg width="50" height="50" viewBox="0 0 50 50" fill="none" xmlns="http://www.w3.org/2000/svg">
<path d="M6.25 36.4583V40.625M43.75 36.4583V40.625M8.33333 12.5C8.33333 11.6712 8.66257 10.8763 9.24862 10.2903C9.83468 9.70424 10.6295 9.375 11.4583 9.375H38.5417C39.3705 9.375 40.1653 9.70424 40.7514 10.2903C41.3374 10.8763 41.6667 11.6712 41.6667 12.5V23.9583H8.33333V12.5Z" stroke="#E38B29" stroke-width="4" stroke-linecap="round" stroke-linejoin="round"/>
<path d="M20.8333 18.75H14.5833C13.7545 18.75 12.9597 19.0792 12.3736 19.6653C11.7876 20.2513 11.4583 21.0462 11.4583 21.875V23.9583H23.9583V21.875C23.9583 21.0462 23.6291 20.2513 23.043 19.6653C22.457 19.0792 21.6621 18.75 20.8333 18.75ZM35.4167 18.75H29.1667C28.3379 18.75 27.543 19.0792 26.957 19.6653C26.3709 20.2513 26.0417 21.0462 26.0417 21.875V23.9583H38.5417V21.875C38.5417 21.0462 38.2124 20.2513 37.6264 19.6653C37.0403 19.0792 36.2455 18.75 35.4167 18.75ZM4.16666 27.0833C4.16666 26.2545 4.4959 25.4597 5.08196 24.8736C5.66801 24.2876 6.46286 23.9583 7.29166 23.9583H42.7083C43.5371 23.9583 44.332 24.2876 44.918 24.8736C45.5041 25.4597 45.8333 26.2545 45.8333 27.0833V36.4583H4.16666V27.0833Z" stroke="#E38B29" stroke-width="4" stroke-linecap="round" stroke-linejoin="round"/>
</svg>
