<svg width="50" height="50" viewBox="0 0 50 50" fill="none" xmlns="http://www.w3.org/2000/svg">
<path d="M14.5833 4.16669C12.2917 4.16669 10.4167 6.04169 10.4167 8.33335V39.5834C10.4167 40.6884 10.8556 41.7482 11.637 42.5296C12.4184 43.311 13.4783 43.75 14.5833 43.75V45.8334H18.75V43.75H31.25V45.8334H35.4167V43.75C37.7292 43.75 39.5833 41.8959 39.5833 39.5834V8.33335C39.5833 7.22829 39.1443 6.16848 38.3629 5.38708C37.5815 4.60567 36.5217 4.16669 35.4167 4.16669H14.5833ZM14.5833 8.33335H35.4167V14.5834H14.5833V8.33335ZM14.5833 18.75H35.4167V25H14.5833V18.75ZM14.5833 29.1667H22.9167V39.5834H14.5833V29.1667ZM27.0833 29.1667H35.4167V39.5834H27.0833V29.1667ZM16.6667 31.25V37.5H20.8333V31.25H16.6667ZM29.1667 31.25V37.5H33.3333V31.25H29.1667Z" fill="#E38B29"/>
</svg>
