<svg width="200" height="200" viewBox="0 0 200 200" fill="none" xmlns="http://www.w3.org/2000/svg">
<path fill-rule="evenodd" clip-rule="evenodd" d="M200 0H0V200H40V78H59C67.8364 78 75 85.1633 75 94V200H94V37H113C121.836 37 129 44.1633 129 53V54.5V101.5V200H200V0ZM129 101.5C129 111.165 136.835 119 146.5 119C156.165 119 164 111.165 164 101.5C164 91.835 156.165 84 146.5 84C136.835 84 129 91.835 129 101.5ZM129 54.5C129 64.165 136.835 72 146.5 72C156.165 72 164 64.165 164 54.5C164 44.835 156.165 37 146.5 37C136.835 37 129 44.835 129 54.5ZM57.5 37C47.835 37 40 44.835 40 54.5C40 64.165 47.835 72 57.5 72C67.165 72 75 64.165 75 54.5C75 44.835 67.165 37 57.5 37Z" fill="black"/>
</svg>
