<svg width="24" height="24" viewBox="0 0 100 100" fill="none" xmlns="http://www.w3.org/2000/svg">
<g clip-path="url(#clip0_50_2)">
<rect width="100" height="100" fill="white"/>
<path d="M100 0H0V100H100V0Z" fill="black"/>
<path d="M26.1001 25.8999C31.6229 25.8999 36.1001 21.4227 36.1001 15.8999C36.1001 10.3771 31.6229 5.8999 26.1001 5.8999C20.5773 5.8999 16.1001 10.3771 16.1001 15.8999C16.1001 21.4227 20.5773 25.8999 26.1001 25.8999Z" fill="white"/>
<path d="M80.9654 22.9652C84.873 19.0576 84.8774 12.7266 80.9753 8.82446C77.0732 4.92234 70.7422 4.92677 66.8346 8.83436C62.927 12.7419 62.9226 19.073 66.8247 22.9751C70.7268 26.8772 77.0578 26.8728 80.9654 22.9652Z" fill="white"/>
<path d="M73.8999 53.5C79.4227 53.5 83.8999 49.0228 83.8999 43.5C83.8999 37.9772 79.4227 33.5 73.8999 33.5C68.3771 33.5 63.8999 37.9772 63.8999 43.5C63.8999 49.0228 68.3771 53.5 73.8999 53.5Z" fill="white"/>
<path d="M63.8999 15.8999V94.0999H43.8999V5.8999H53.8999C59.4219 5.8999 63.8999 10.3779 63.8999 15.8999Z" fill="white"/>
<path d="M36.1001 40.3V94.1H16.1001V30.3H26.1001C31.6221 30.3 36.1001 34.778 36.1001 40.3Z" fill="white"/>
</g>
<defs>
<clipPath id="clip0_50_2">
<rect width="100" height="100" fill="white"/>
</clipPath>
</defs>
</svg>
